<?xml version="1.0" encoding="UTF-8" standalone="no"?>
<!DOCTYPE svg PUBLIC "-//W3C//DTD SVG 1.1//EN" "http://www.w3.org/Graphics/SVG/1.1/DTD/svg11.dtd">
<svg width="100%" height="100%" viewBox="0 0 2400 2400" version="1.1" xmlns="http://www.w3.org/2000/svg" xmlns:xlink="http://www.w3.org/1999/xlink" xml:space="preserve" xmlns:serif="http://www.serif.com/" style="fill-rule:evenodd;clip-rule:evenodd;stroke-linecap:round;stroke-linejoin:round;stroke-miterlimit:1.5;">
    <g id="Head" transform="matrix(-1,0,0,1,2404.43,0)">
        <path id="Skin" d="M666,514.845C540.267,765.476 568.616,938.211 590,1107.85C599.919,1186.53 514.004,1265.62 454,1331.85C432.7,1355.36 449,1374.85 516,1403.85C526.702,1408.48 559.937,1533.41 556,1589.85C553,1632.85 706.034,1583.08 706,1587.85C705.965,1592.72 567,1633.85 566,1657.85C561.398,1768.29 617.51,1841.31 696,1886.85C779.209,1935.12 851.919,1845.18 908,1831.85C957.179,1820.15 1123.68,1764.69 1190,1862.85C1215,1899.85 1250,1924.85 1251,2216.85C1251.66,2411.13 1732.08,2244.74 1877,2006.85C1898.04,1972.31 1754.78,1797.27 1752,1476.85C1750.22,1271.45 1827.21,1110.03 1829,1041.85C1833.13,884.279 1657.6,584.497 1118,494.845C1057.95,460.002 666,514.845 666,514.845Z" style="fill:rgb(183,159,132);"/>
        <g id="Ear">
            <path d="M1337.27,919.325C1381.23,873.567 1427.68,867.557 1464,907.845C1480.33,950.16 1474.27,1002.68 1415,1058.85C1389.4,1083.1 1403.72,1092.58 1366,1115.85" style="fill:none;stroke:black;stroke-opacity:0.13;stroke-width:5.56px;"/>
            <path d="M1315,1037.85C1335.38,1037.91 1335,1064.85 1335,1064.85L1313,1107.85" style="fill:none;stroke:black;stroke-opacity:0.13;stroke-width:5.56px;"/>
            <path d="M1310,907.845C1375.26,839.006 1435.08,832.236 1489,892.845C1513.25,956.504 1487.99,1029.35 1400,1113.85C1362,1150.33 1382,1209.85 1326,1244.85C1292.79,1255.42 1276.2,1228.47 1271,1175.85" style="fill:none;stroke:black;stroke-opacity:0.34;stroke-width:5.56px;"/>
        </g>
        <g id="Eye">
            <path d="M717,961.845C752.075,949.477 914.064,973.267 966,1012.85L893,1158.85C858.28,1152.47 811.468,1167.09 764,1182.85C721.741,1113.81 701.948,1040.87 717,961.845Z" style="fill:white;stroke:black;stroke-width:1px;"/>
            <path d="M745.88,1150.18C818.501,1104.48 829.547,1039.09 815,964.843C774.984,959.092 739.958,956.004 717,961.843C705.152,1020.52 713.072,1082.98 745.88,1150.18Z" style="fill:rgb(82,113,255);"/>
            <path d="M729,1110.85C785.183,1087.23 787.22,1016.97 778,959.85C746.447,956.715 729.47,957.56 717,961.85C705.509,1014.51 713.844,1069.5 729,1110.85Z"/>
            <ellipse cx="731" cy="997.845" rx="9" ry="15" style="fill:white;"/>
        </g>
        <path id="Eyebrow" d="M663,845.845C649,888.845 694.611,901.535 733,890.845C812,868.845 945.569,929.953 1033,954.845C825.26,820.347 680.959,790.686 663,845.845Z" style="fill:rgb(106,75,47);"/>
        <path id="Hair-and-beard" serif:id="Hair and beard" d="M663,312.845C663,312.845 614.601,185.796 616,187.845C778.696,426.075 960.033,7.116 1599,110.845C1753,135.845 1838.71,284.683 1838,278.845C1819.15,124.795 1777.28,125.355 1803,136.845C1897,178.845 1884,363.845 1892.05,297.879C1904.03,199.617 1937.7,148.469 1936.91,156.124C1917,348.845 1985,474.845 1958,708.845C1942.3,844.945 1804,1094.85 1775.58,1294.91C1759.52,1408 1758,1428.85 1755,1477.85C1754.75,1481.9 1710,1419.85 1628.49,1337.52C1573.05,1281.52 1568.46,902.749 1496,826.845C1479.39,809.449 1402.91,759.049 1336,780.845C1266.19,803.583 1206.24,900.097 1208,957.845C1212.82,1116.26 1221,1198.85 1306,1402.85C1312.6,1418.68 1384.95,1592.21 1359,1655.85C1263.12,1890.99 1263.12,1710.03 794,2202.85C663.337,2340.11 521.899,1871.91 580,1724.85C612,1643.85 755,1623.85 751,1585.85C736.223,1445.47 531,1663.85 526.635,1518.36C525.675,1486.39 580.766,1439.51 660.828,1441.76C913,1448.85 753,1726.85 1029.62,1615.98C1115.84,1581.42 1166.32,1495.37 1148,1367.85C1139.46,1308.4 1137.76,1213.6 1139,1152.85C1142,1005.85 1139.73,919.103 1127,827.845C1091,569.845 1060,549.845 948.249,502.745C857.664,464.567 737.082,635.844 614.739,483.879C597,461.845 601.838,416.896 606,389.845C626,259.845 494.331,160.269 440,146.845C537.046,170.723 612.29,224.795 663,312.845Z" style="fill:rgb(106,75,47);"/>
    </g>
</svg>
