<?xml version="1.0" encoding="UTF-8" standalone="no"?><!DOCTYPE svg PUBLIC "-//W3C//DTD SVG 1.1//EN" "http://www.w3.org/Graphics/SVG/1.1/DTD/svg11.dtd"><svg width="100%" height="100%" viewBox="0 0 2400 2400" version="1.1" xmlns="http://www.w3.org/2000/svg" xmlns:xlink="http://www.w3.org/1999/xlink" xml:space="preserve" xmlns:serif="http://www.serif.com/" style="fill-rule:evenodd;clip-rule:evenodd;stroke-linecap:round;stroke-linejoin:round;stroke-miterlimit:1.5;"><g id="Head"><path id="Skin" d="M666,514.845c-125.733,250.631 -97.384,423.366 -76,593c9.919,78.684 -75.996,157.77 -136,224c-21.3,23.51 -5,43 62,72c10.702,4.632 43.937,129.568 40,186c-3,43 150.034,-6.768 150,-2c-0.035,4.872 -139,46 -140,70c-4.602,110.448 51.51,183.463 130,229c83.209,48.274 155.919,-41.669 212,-55c49.179,-11.691 215.676,-67.159 282,31c25,37 60,62 61,354c0.665,194.282 481.083,27.893 626,-210c21.037,-34.534 -122.219,-209.579 -125,-530c-1.783,-205.394 75.211,-366.818 77,-435c4.135,-157.566 -171.396,-457.348 -711,-547c-60.049,-34.843 -452,20 -452,20Z" style="fill:#b79f84;"/><g id="Ear"><path d="M1337.27,919.325c43.96,-45.758 90.409,-51.768 126.729,-11.48c16.334,42.315 10.273,94.836 -49,151c-25.597,24.254 -11.278,33.735 -49,57" style="fill:none;stroke:#000;stroke-opacity:0.13;stroke-width:5.56px;"/><path d="M1315,1037.85c20.385,0.056 20,27 20,27l-22,43" style="fill:none;stroke:#000;stroke-opacity:0.13;stroke-width:5.56px;"/><path d="M1310,907.845c65.26,-68.839 125.082,-75.609 179,-15c24.248,63.659 -1.006,136.507 -89,221c-38,36.488 -18,96 -74,131c-33.212,10.577 -49.795,-16.374 -55,-69" style="fill:none;stroke:#000;stroke-opacity:0.34;stroke-width:5.56px;"/></g><g id="Eye"><path d="M717,961.845c35.075,-12.368 197.064,11.422 249,51l-73,146c-34.72,-6.375 -81.532,8.244 -129,24c-42.259,-69.033 -62.052,-141.98 -47,-221Z" style="fill:#fff;stroke:#000;stroke-width:1px;"/><path d="M745.88,1150.18c72.621,-45.7 83.667,-111.095 69.12,-185.337c-40.016,-5.751 -75.042,-8.839 -98,-3c-11.848,58.68 -3.928,121.134 28.88,188.337Z" style="fill:#5271ff;"/><path d="M729,1110.85c56.183,-23.617 58.22,-93.883 49,-151c-31.553,-3.135 -48.53,-2.29 -61,2c-11.491,52.66 -3.156,107.654 12,149Z"/><ellipse cx="731" cy="997.845" rx="9" ry="15" style="fill:#fff;"/></g><path id="Eyebrow" d="M663,845.845c-14,43 31.611,55.69 70,45c79,-22 212.569,39.108 300,64c-207.74,-134.498 -352.041,-164.159 -370,-109Z" style="fill:#6a4b2f;"/><path id="Hair-and-beard" serif:id="Hair and beard" d="M663,312.845c0,-0 -48.399,-127.049 -47,-125c162.696,238.23 344.033,-180.729 983,-77c154,25 239.714,173.838 239,168c-18.853,-154.05 -60.716,-153.49 -35,-142c94,42 81,227 89.045,161.034c11.982,-98.262 45.654,-149.41 44.863,-141.755c-19.908,192.721 48.092,318.721 21.092,552.721c-15.704,136.1 -154,386 -182.417,586.063c-16.063,113.092 -17.583,133.937 -20.583,182.937c-0.248,4.053 -45,-58 -126.507,-140.323c-55.445,-56 -60.03,-434.773 -132.493,-510.677c-16.607,-17.396 -93.087,-67.796 -160,-46c-69.806,22.738 -129.758,119.252 -128,177c4.824,158.413 13,241 98,445c6.6,15.839 78.946,189.367 53,253c-95.882,235.147 -95.878,54.182 -565,547c-130.663,137.263 -272.101,-330.932 -214,-478c32,-81 175,-101 171,-139c-14.777,-140.377 -220,78 -224.365,-67.483c-0.96,-31.969 54.131,-78.852 134.193,-76.602c252.172,7.085 92.172,285.085 368.794,174.218c86.216,-34.554 136.696,-120.605 118.378,-248.133c-8.539,-59.447 -10.24,-154.243 -9,-215c3,-147 0.734,-233.742 -12,-325c-36,-258 -67,-278 -178.751,-325.1c-90.585,-38.178 -211.167,133.099 -333.51,-18.866c-17.739,-22.034 -12.901,-66.983 -8.739,-94.034c20,-130 -111.669,-229.576 -166,-243c97.046,23.878 172.29,77.95 223,166Z" style="fill:#6a4b2f;"/></g></svg>